
<svg viewBox="0 0 200 200" xmlns="http://www.w3.org/2000/svg">
  <path fill="#FF0066" d="M27.1,-46.4C31.3,-44.6,28,-29.5,38.8,-19.5C49.6,-9.6,74.3,-4.8,74.8,0.3C75.3,5.3,51.5,10.7,37.5,15C23.5,19.3,19.3,22.7,14.6,32C10,41.3,5,56.7,-2.9,61.8C-10.9,66.9,-21.7,61.7,-29.8,54.3C-37.8,46.9,-43,37.4,-45.3,27.9C-47.6,18.5,-47.1,9.3,-52,-2.8C-56.9,-14.9,-67.2,-29.8,-65.8,-40.9C-64.4,-52,-51.4,-59.2,-38.5,-55.9C-25.6,-52.7,-12.8,-39,-0.6,-37.9C11.5,-36.8,23,-48.3,27.1,-46.4Z" transform="translate(100 100)" />
</svg>
